:SAMPLES-PER-SECOND 30
:FULLY-SPECIFIED
:DEGREES
33
root  59.9939 38.1127 3.79348 -130.44 -87.2528 126.857
RightUpLeg  -22.6144 -8.7487 -1.27458
RightLeg  5.84964 -12.2627 3.83531
RightFoot  -0.0489692 -0.418184 4.2805
RightToes  0.00048216 0.542163 -0.142577
Spine  13.8384 -2.12488 -6.43091
Spine1  5.57597 -4.74492 6.73586
HEad  -8.17797 6.05586 -6.16773
LeftShoulder1  7.28638 -11.1869 -43.1243
LeftArm  -3.14564 -3.41203 -42.2638
LeftForeArm  37.7998 -17.5333 -4.27115
LeftHand  -0.25398 0.0180481 5.50724
RightShoulder  3.80705 6.70576 31.3397
RightArm  5.27606 -23.8839 46.5196
RightForeArm  13.7237 17.1195 5.91225
RightHand  -1.00176 1.8303 -16.2395
LeftUpLeg  17.6444 6.76157 -2.01347
LeftLeg  10.7075 18.0408 -2.63509
LeftFoot  -23.6565 -0.436579 -5.36168
LeftToes  1.06247e-005 4.65855e-005 -8.18501e-006
34
root  58.6683 37.9511 3.81498 -135.644 -88.8114 132.199
RightUpLeg  -23.9035 -11.7348 1.26201
RightLeg  9.94599 -8.83352 2.07643
RightFoot  2.94185 -0.0873441 0.87669
RightToes  0.00048216 0.542163 -0.142577
Spine  14.1552 -2.62735 -4.88256
Spine1  5.61984 -5.33482 7.35211
HEad  -8.92065 6.40892 -6.62893
LeftShoulder1  7.34031 -11.2842 -43.1601
LeftArm  -1.01946 -3.70081 -42.7387
LeftForeArm  35.5382 -20.3162 -3.59394
LeftHand  -0.25398 0.0180481 5.50724
RightShoulder  3.7319 6.52237 31.271
RightArm  6.28132 -22.4147 45.1427
RightForeArm  13.9322 16.6525 6.15837
RightHand  -1.04987 2.03009 -16.5613
LeftUpLeg  19.3982 7.75823 -0.186167
LeftLeg  11.4438 15.6502 -2.01875
LeftFoot  -23.5501 -0.491175 -5.9026
LeftToes  1.06247e-005 4.65855e-005 -8.18501e-006
35
root  57.2232 37.8378 3.82039 138.944 -89.9042 -142.376
RightUpLeg  -25.2635 -15.7989 5.02284
RightLeg  15.058 -4.16419 -0.0668223
RightFoot  5.11886 0.345791 -2.17583
RightToes  0.00048216 0.542163 -0.142577
Spine  14.2961 -3.10432 -2.34496
Spine1  5.88402 -5.65703 7.54125
HEad  -9.77801 6.51577 -7.03291
LeftShoulder1  7.39264 -11.3877 -43.1669
LeftArm  -0.694459 -3.24989 -42.5813
LeftForeArm  36.8784 -23.2935 -3.17194
LeftHand  -0.25398 0.0180481 5.50724
RightShoulder  3.67837 6.37623 31.2796
RightArm  3.90308 -20.2197 43.665
RightForeArm  16.0245 14.8984 6.61341
RightHand  -1.00853 1.66075 -16.7183
LeftUpLeg  21.0526 10.2865 2.97102
LeftLeg  13.2149 11.7581 -0.858455
LeftFoot  -22.8107 -0.60287 -7.34387
LeftToes  1.06247e-005 4.65855e-005 -8.18501e-006
36
root  55.6868 37.7766 3.80912 83.5641 -88.122 -87.2434
RightUpLeg  -25.5854 -16.4725 7.15937
RightLeg  19.9635 -2.60313 -1.43289
RightFoot  4.73502 0.62513 -4.21531
RightToes  0.00048216 0.542163 -0.142577
Spine  14.3099 -3.34378 0.556215
Spine1  6.48825 -5.50958 7.22732
HEad  -10.4035 6.54048 -7.36373
LeftShoulder1  7.40773 -11.4271 -43.1394
LeftArm  -2.66917 -2.06737 -41.8962
LeftForeArm  39.3423 -25.8468 -3.46203
LeftHand  -0.25398 0.0180481 5.50724
RightShoulder  3.80504 6.65541 31.5041
RightArm  -0.79657 -17.8196 42.0689
RightForeArm  17.9154 12.6799 6.7907
RightHand  -0.968203 1.20723 -17.1131
LeftUpLeg  22.523 14.0727 6.66949
LeftLeg  16.1467 6.5333 0.621854
LeftFoot  -21.0525 -0.840976 -11.5031
LeftToes  1.06247e-005 4.65855e-005 -8.18501e-006
37
root  54.1313 37.8024 3.74677 105.952 -87.0851 -109.815
RightUpLeg  -24.6902 -14.6415 7.40975
RightLeg  23.8005 -3.584 -1.94564
RightFoot  2.11244 0.673175 -5.58024
RightToes  0.00048216 0.542163 -0.142577
Spine  14.2188 -3.29324 2.79295
Spine1  6.95372 -5.0323 6.88884
HEad  -9.90266 6.84975 -7.52291
LeftShoulder1  7.36931 -11.3673 -43.0848
LeftArm  -4.40364 -0.250275 -40.8097
LeftForeArm  39.3676 -27.4958 -3.82448
LeftHand  -0.25398 0.0180481 5.50724
RightShoulder  4.03725 7.18519 31.8254
RightArm  -5.47424 -15.6423 40.5984
RightForeArm  17.2585 10.8925 6.54596
RightHand  -1.0852 1.59836 -18.0858
LeftUpLeg  21.8676 15.7272 8.63072
LeftLeg  21.9912 4.86676 2.77525
LeftFoot  -16.2225 -0.577235 -16.0614
LeftToes  1.06247e-005 4.65855e-005 -8.18501e-006
38
root  52.6604 37.9053 3.63488 109.225 -86.3359 -112.763
RightUpLeg  -23.568 -14.2309 7.85937
RightLeg  26.0232 -3.70259 -2.19565
RightFoot  -0.971875 0.56153 -6.23312
RightToes  0.00048216 0.542163 -0.142577
Spine  13.8826 -3.16898 4.56986
Spine1  6.9854 -4.49728 6.81381
HEad  -8.12256 7.04767 -7.33791
LeftShoulder1  7.32081 -11.2789 -43.055
LeftArm  -5.46571 1.83383 -39.5129
LeftForeArm  38.1552 -28.2847 -4.05605
LeftHand  -0.25398 0.0180481 5.50724
RightShoulder  4.15137 7.42383 32.0468
RightArm  -8.15951 -13.8052 39.4878
RightForeArm  13.4723 10.4683 6.31897
RightHand  -1.41298 3.02815 -19.5901
LeftUpLeg  16.9012 13.0938 8.05887
LeftLeg  32.3425 8.57443 6.20296
LeftFoot  -6.40127 0.620784 -15.1809
LeftToes  1.06247e-005 4.65855e-005 -8.18501e-006
39
root  51.3532 37.9789 3.5159 99.4977 -85.5411 -102.403
RightUpLeg  -22.6314 -14.8631 8.63882
RightLeg  27.4846 -3.66922 -2.30975
RightFoot  -3.6253 0.37819 -5.94082
RightToes  0.00048216 0.542163 -0.142577
Spine  13.4183 -3.17335 6.75827
Spine1  7.04759 -4.0166 6.95542
HEad  -5.98407 6.40957 -6.8848
LeftShoulder1  7.29743 -11.2155 -43.1049
LeftArm  -6.63451 3.65782 -38.3169
LeftForeArm  37.6637 -28.749 -4.18296
LeftHand  -0.25398 0.0180481 5.50724
RightShoulder  4.08968 7.23811 32.1286
RightArm  -7.72109 -12.3692 38.6556
RightForeArm  7.19133 12.4583 6.3181
RightHand  -1.74804 4.40784 -20.8536
LeftUpLeg  9.09499 10.3574 7.71816
LeftLeg  44.5615 9.08005 9.7523
LeftFoot  5.06209 1.20312 -8.53147
LeftToes  1.06247e-005 4.65855e-005 -8.18501e-006
